<svg width="24" height="24" viewBox="0 0 24 24" fill="none" xmlns="http://www.w3.org/2000/svg">
<g clip-path="url(#clip0_223_2362)">
<path d="M11.9914 0C5.36188 0 0 5.4 0 12.0686C0 18.0857 4.38544 23.0914 10.1242 24V15.5657H7.07495V12.0686H10.1242V9.41143C10.1242 6.37714 11.9229 4.71429 14.6467 4.71429C15.9657 4.71429 17.3362 4.95429 17.3362 4.95429V7.92H15.8287C14.3383 7.92 13.8758 8.84571 13.8758 9.80571V12.0686H17.1991L16.6681 15.5657H13.8758V24C19.6146 23.0914 24 18.1029 24 12.0686C24 5.4 18.6381 0 12.0086 0H11.9914Z" fill="#FF6011"/>
</g>
<defs>
<clipPath id="clip0_223_2362">
<rect width="24" height="24" fill="white"/>
</clipPath>
</defs>
</svg>
