<svg width="24" height="24" viewBox="0 0 24 24" fill="none" xmlns="http://www.w3.org/2000/svg">
<path fill-rule="evenodd" clip-rule="evenodd" d="M12 0C5.3726 0 0 5.37255 0 12C0 18.6273 5.3726 24 12 24C18.6275 24 24 18.6274 24 12C24 5.37255 18.6275 0 12 0ZM12 21.6C6.70657 21.6 2.40002 17.2934 2.40002 12C2.40002 6.70651 6.70651 2.40002 12 2.40002C17.2935 2.40002 21.6 6.70651 21.6 12C21.6 17.2934 17.2935 21.6 12 21.6ZM13.5026 7.19999C13.5026 8.07007 12.8691 8.70001 12.0122 8.70001C11.1206 8.70001 10.5026 8.07001 10.5026 7.18334C10.5026 6.33116 11.1373 5.70003 12.0122 5.70003C12.8691 5.70003 13.5026 6.33116 13.5026 7.19999ZM10.8026 10.8H13.2026V18H10.8026V10.8Z" fill="#52BF77"/>
</svg>
