<svg width="24" height="24" viewBox="0 0 24 24" fill="none" xmlns="http://www.w3.org/2000/svg">
<path fill-rule="evenodd" clip-rule="evenodd" d="M12.792 23.3799L12.776 23.3822L12.6813 23.4212L12.6547 23.4257L12.636 23.4212L12.5413 23.3811C12.5271 23.3781 12.5164 23.3803 12.5093 23.3877L12.504 23.3989L12.4813 23.8762L12.488 23.8985L12.5013 23.913L12.64 23.9955L12.66 24L12.676 23.9955L12.8147 23.913L12.8307 23.8951L12.836 23.8762L12.8133 23.4C12.8098 23.3881 12.8027 23.3814 12.792 23.3799ZM13.144 23.2539L13.1253 23.2562L12.88 23.3599L12.8667 23.371L12.8627 23.3833L12.8867 23.8628L12.8933 23.8762L12.904 23.8851L13.172 23.9877C13.1889 23.9914 13.2018 23.9884 13.2107 23.9788L13.216 23.9632L13.1707 23.2785C13.1662 23.2643 13.1573 23.2562 13.144 23.2539ZM12.1907 23.2562C12.1848 23.2532 12.1778 23.2522 12.171 23.2535C12.1643 23.2547 12.1585 23.2581 12.1547 23.2628L12.1467 23.2785L12.1013 23.9632C12.1022 23.9765 12.1098 23.9855 12.124 23.9899L12.144 23.9877L12.412 23.884L12.4253 23.8751L12.4293 23.8628L12.4533 23.3833L12.4493 23.3699L12.436 23.3588L12.1907 23.2562Z" fill="#52BF77"/>
<path fill-rule="evenodd" clip-rule="evenodd" d="M18.6 0.327616C18.85 0.536738 18.9904 0.820329 18.9904 1.11603C18.9904 1.41172 18.85 1.69532 18.6 1.90444L14.6 5.24989H21.3333C22.0406 5.24989 22.7189 5.48486 23.219 5.90313C23.719 6.32139 24 6.88867 24 7.48019V18.6317C24 19.2232 23.719 19.7905 23.219 20.2087C22.7189 20.627 22.0406 20.862 21.3333 20.862H2.66667C1.95942 20.862 1.28115 20.627 0.781048 20.2087C0.280951 19.7905 0 19.2232 0 18.6317V7.48019C0 6.88867 0.280951 6.32139 0.781048 5.90313C1.28115 5.48486 1.95942 5.24989 2.66667 5.24989H7.51467L5.4 3.48126C5.14999 3.27201 5.0096 2.98827 5.00973 2.69245C5.00986 2.39664 5.15048 2.11298 5.40067 1.90388C5.65085 1.69478 5.99011 1.57737 6.3438 1.57747C6.6975 1.57758 7.03666 1.69519 7.28667 1.90444L10.5853 4.66443C10.7104 4.76896 10.8799 4.82768 11.0567 4.82768C11.2334 4.82768 11.403 4.76896 11.528 4.66443L16.7147 0.326501C16.9647 0.117443 17.3038 0 17.6573 0C18.0109 0 18.35 0.118558 18.6 0.327616ZM21.3333 7.48019H2.66667V18.6317H21.3333V7.48019ZM7.97333 10.3205C8.0014 10.106 8.08944 9.90014 8.23033 9.71946C8.37122 9.53877 8.56101 9.38838 8.78432 9.28044C9.00763 9.17251 9.2582 9.11007 9.51572 9.09818C9.77325 9.08629 10.0305 9.12529 10.2667 9.21202C11.2717 9.58318 12.251 10.0013 13.2 10.4643C14.1551 10.9209 15.0788 11.422 15.9667 11.9653C16.8573 12.5162 16.86 13.6258 15.9667 14.1778C15.0788 14.7203 14.1551 15.2207 13.2 15.6765C11.8707 16.3189 10.82 16.7281 10.2667 16.93C10.0307 17.0172 9.77337 17.0566 9.51572 17.045C9.25808 17.0334 9.00733 16.9711 8.78388 16.8632C8.56042 16.7553 8.37056 16.6049 8.22972 16.424C8.08888 16.2432 8.00104 16.0372 7.97333 15.8226C7.85756 14.9088 7.80059 13.9905 7.80267 13.0715C7.80267 11.8003 7.90667 10.8256 7.97333 10.3205ZM10.5093 11.7769C10.4573 12.6387 10.4573 13.5022 10.5093 14.364C11.4272 13.9707 12.3208 13.539 13.1867 13.0704C12.3208 12.6019 11.4272 12.1701 10.5093 11.7769Z" fill="#52BF77"/>
</svg>
