<svg width="333" height="400" viewBox="0 0 333 400" fill="none" xmlns="http://www.w3.org/2000/svg">
<g clip-path="url(#clip0_181_1271)">
<path d="M57.8753 217.006C56.0053 213.626 58.8803 210.88 63.2299 198.069C66.0926 189.643 65.2646 189.593 69.4083 176.663C71.9909 168.595 71.6366 170.727 73.9391 163.49C77.8109 151.313 77.9016 148.164 81.3532 145.789C84.9491 143.315 89.4717 143.553 92.8863 143.73C95.5759 143.87 95.7325 144.303 104.007 146.2C110.89 147.777 111.508 147.645 114.305 148.67C118.716 150.284 121.69 151.371 123.366 154.022C124.998 156.603 124.602 159.402 122.955 166.783C120.413 178.174 118.012 186.543 118.012 186.543C114.886 197.444 113.32 202.923 113.069 204.244C111.982 210.007 110.503 215.713 109.774 221.534C109.271 225.552 109.164 227.902 107.303 229.355C104.955 231.187 101.61 230.187 95.7695 228.532C86.7161 225.967 74.3016 222.567 73.5272 222.357C61.6935 219.121 59.3251 219.628 57.8753 217.006Z" fill="#333333" stroke="#333333" stroke-miterlimit="10"/>
<path d="M67.3489 342.973C67.9749 343.483 67.8102 344.644 67.7608 345.031C67.4024 347.752 67.9338 350.527 67.7608 353.264C67.6907 354.384 67.7155 357.167 67.7608 362.733C67.8019 367.652 67.8802 368.15 67.3489 368.907C65.8825 371.003 62.7604 370.793 56.6396 370.966C56.6396 370.966 52.5742 371.093 43.459 371.789C34.8545 372.448 30.0024 373.567 27.3951 374.259C23.2226 375.362 17.4973 376.877 17.5097 378.787C17.522 380.45 21.8799 381.706 24.9238 382.492C40.3945 386.489 53.8429 386.588 56.6396 386.609C77.1725 386.769 72.0156 387.016 87.9436 387.02C91.6671 387.02 105.461 386.967 122.131 383.727C126.863 382.809 131.856 381.628 132.016 379.611C132.21 377.227 125.418 374.835 123.778 374.259C121.134 373.329 118.737 372.847 111.422 372.201C101.437 371.32 96.4451 370.879 94.5339 370.966C89.7971 371.18 86.3166 371.851 84.6484 369.731C84.0759 369.002 83.9441 368.228 83.8246 365.614C83.5569 359.686 84.0141 358.912 83.8246 355.323C83.6434 351.894 83.8699 348.436 83.4127 345.031C83.3633 344.657 83.1944 343.471 83.8246 342.973C84.5166 342.425 85.6123 343.146 86.296 342.561C86.8067 342.125 86.7367 341.265 86.7079 340.915C86.4937 338.317 86.7285 335.699 86.7079 333.093C86.6749 328.446 86.6585 326.12 86.7079 325.683C86.7614 325.222 86.8974 324.185 86.3042 323.65C85.5093 322.933 84.253 323.88 83.4127 323.213C82.7908 322.719 82.8526 321.641 83.0008 319.508C83.1203 317.817 83.178 316.968 83.4127 316.627C84.6402 314.832 87.9024 316.656 92.8863 315.392C93.4218 315.256 95.7366 314.639 98.2409 312.922C100.568 311.329 102.006 309.509 102.772 308.394C103.196 307.776 104.37 305.977 105.243 303.042C106.108 300.132 106.079 298.106 106.067 292.751C106.059 289.182 106.083 285.617 106.067 282.048C106.013 270.986 106.141 273.106 106.067 271.344C106.067 271.344 105.779 264.544 106.891 258.171C106.961 257.764 107.125 256.932 107.715 256.113C108.415 255.142 109.168 255.096 109.774 254.466C111.961 252.202 111.154 248.176 111.01 247.468C110.763 246.237 110.495 244.908 109.362 243.763C107.439 241.82 104.65 242.059 104.007 242.117C103.361 242.174 101.12 242.368 99.4766 244.175C98.1503 245.632 97.9444 247.332 97.829 248.292C97.5654 250.494 98.1709 252.474 98.6528 254.055C99.0235 255.273 99.2995 255.747 99.4766 256.936C99.7073 258.488 99.5466 259.69 99.4766 260.23C99.0853 264.145 99.073 267.088 99.0647 268.051C99.0606 268.615 98.9247 271.447 98.6528 277.108C98.1174 288.325 97.8785 286.852 97.829 291.516C97.792 295.085 97.483 298.65 97.4171 302.219C97.3883 303.857 97.376 305.372 96.5934 307.159C95.3412 310.016 92.9934 311.559 92.0625 312.099C87.7623 314.589 83.1079 313.379 81.3533 312.922C79.4503 312.424 79.3473 312.049 77.2343 311.275C71.3731 309.122 67.8555 310.361 64.8775 309.629C58.6579 308.097 56.0012 298.094 54.5801 292.751C51.0337 279.405 51.4703 260.522 51.6969 250.762C51.7381 248.954 51.874 243.99 49.2255 242.528C48.1258 241.923 46.4658 241.874 45.1066 242.528C43.4261 243.343 42.8082 244.953 42.6352 245.41C42.4004 246.023 42.3222 246.55 42.6352 250.762C42.837 253.478 42.9071 253.738 43.0471 254.055C44.0068 256.2 46.367 256.603 47.5779 257.348C52.3436 260.275 47.1702 273.209 47.9898 289.869C48.3523 297.287 48.5377 300.996 50.8731 303.865C56.376 310.621 68.9758 311.152 69.4083 315.803C69.4495 316.265 69.363 316.635 69.4083 318.685C69.4742 321.789 69.7255 323.189 68.9964 323.625C68.8234 323.728 68.7658 323.674 67.3489 323.625C66.0802 323.58 65.4459 323.559 65.2894 323.625C64.1855 324.098 64.9805 326.943 64.8775 331.035C64.6798 338.823 64.4656 340.503 64.4656 340.503C64.4121 340.927 64.2597 342.059 64.8775 342.561C65.5736 343.129 66.6528 342.409 67.3489 342.973Z" fill="#333333" stroke="#1A1A1A" stroke-miterlimit="10"/>
<path d="M57.0515 326.507C56.9938 330.471 55.3957 333.39 54.1682 335.563C51.6722 339.988 48.62 342.623 46.7542 344.208C45.8233 344.998 41.6631 348.452 34.8092 351.206C30.1795 353.067 29.9736 352.355 22.0405 354.911C16.5129 356.689 13.6873 357.628 10.5075 359.851C6.95281 362.337 3.87596 364.396 3.50526 367.672C2.95744 372.518 8.50565 377.915 12.5669 379.611C14.2681 380.319 15.858 381.261 17.5097 382.081C17.8927 382.27 19.3961 383.015 20.8048 384.55C21.4144 385.217 21.7316 385.563 21.6286 385.785C21.2744 386.543 16.3193 385.361 12.155 383.316C9.91845 382.216 6.96517 380.726 4.32905 377.552C2.85035 375.77 0.0782976 372.431 0.210104 368.496C0.395456 363.008 6.12491 359.283 9.68367 356.969C17.1225 352.132 19.7998 353.977 32.3379 348.736C41.3007 344.99 44.8018 342.014 46.7542 340.091C48.6653 338.206 51.5774 335.279 53.3445 330.623C55.5193 324.893 54.6543 319.974 55.4039 319.92C56.0177 319.875 57.1009 323.131 57.0515 326.507Z" fill="#CCCCCC" stroke="#CCCCCC" stroke-miterlimit="10"/>
<path d="M60.7586 293.986C61.5082 293.936 61.7389 294.558 64.0538 295.221C66.3439 295.875 67.0935 295.542 67.7608 296.044C69.499 297.349 67.8473 302.202 66.937 305.1C62.921 317.887 62.8551 325.893 59.9348 326.095C58.9916 326.161 58.555 325.354 55.8159 324.86C53.5999 324.461 53.1056 324.852 52.5207 324.448C50.7125 323.205 52.9491 317.771 54.9921 310.452C57.6406 300.951 58.3243 294.15 60.7586 293.986Z" fill="#534741" stroke="#534741" stroke-miterlimit="10"/>
<path d="M102.36 227.709C103.369 227.844 110.334 228.758 110.598 231.002C110.688 231.776 109.902 232.039 109.362 233.883C108.707 236.111 109.308 237.584 108.538 238C107.912 238.338 107.307 237.469 106.479 237.588C104.708 237.84 104.003 242.335 103.596 244.587C102.78 249.074 101.001 253.334 99.8885 257.76C97.7919 266.092 96.7375 270.27 96.5933 270.933C95.4153 276.334 95.2464 278.129 93.7101 284.929C92.1572 291.8 91.4364 293.899 89.5911 296.044C88.9156 296.826 86.5143 299.547 82.5889 300.572C79.3597 301.416 76.9789 300.589 72.2916 299.337C59.6588 295.962 61.7924 297.197 55.8158 295.221C46.8694 292.261 42.3963 290.783 40.9876 288.634C39.6448 286.584 39.2535 284.085 44.6946 263.523C46.8859 255.244 49.2255 246.645 49.2255 246.645C50.6671 241.347 50.42 235.477 52.9325 230.59C53.2579 229.952 54.9508 226.745 53.7563 225.239C53.2538 224.609 52.4589 224.736 52.1087 224.004C51.6763 223.106 52.5083 222.254 52.9325 220.71C53.6039 218.273 52.4506 217.071 52.9325 216.182C54.0858 214.05 62.9704 216.824 67.7607 218.24C87.6634 224.127 97.6189 227.071 102.36 227.709Z" fill="#808080" stroke="#808080" stroke-miterlimit="10"/>
<path d="M18.3335 391.549C19.7051 395.002 25.4798 395.789 27.807 396.077C48.6736 398.662 61.9942 399.37 61.9942 399.37C77.9263 399.757 79.8375 399.823 84.6484 399.782C90.3573 399.732 86.4937 399.65 105.655 398.958C105.655 398.958 112.645 398.707 128.309 394.842C129.409 394.57 131.403 394.052 132.428 392.372C133.392 390.799 132.857 389.268 132.428 384.55C132.004 379.882 132.642 379.512 132.016 378.787C130.113 376.585 124.928 379.392 115.952 381.257C111.809 382.118 107.97 382.381 100.3 382.904C92.9234 383.406 87.5193 383.365 81.3533 383.315C77.0366 383.283 69.5896 383.208 59.9348 382.492C48.1834 381.619 42.3057 381.183 36.4568 380.022C32.4244 379.219 18.906 376.326 17.9216 378.376C17.9051 378.413 17.8227 378.544 17.7856 378.725C17.6868 379.211 17.9751 379.792 18.3335 382.492C19.009 387.617 17.4561 389.334 18.3335 391.549Z" fill="#4D4D4D" stroke="#333333" stroke-miterlimit="10"/>
<path d="M117.188 156.08C117.439 156.163 117.081 158.056 116.364 161.843C114.927 169.443 113.102 175.14 111.01 181.603C106.462 195.653 106.561 195.336 106.479 195.599C102.195 209.295 100.35 217.516 99.8885 217.417C99.5137 217.335 100.366 211.769 101.124 207.537C105.927 180.669 116.051 155.718 117.188 156.08Z" fill="#B3B3B3" stroke="#333333" stroke-miterlimit="10"/>
<path d="M173.617 172.135C172.872 172.061 172.892 169.443 171.97 165.96C171.624 164.659 170.858 161.839 169.087 158.962C167.966 157.138 165.829 154.294 163.32 151.552C162.319 150.457 161.413 149.551 161.672 149.082C161.755 148.934 162.093 148.584 166.203 149.494C168.819 150.07 170.125 150.358 170.734 150.729C172.67 151.902 172.411 153.417 174.441 157.727C176.871 162.885 178.98 164.404 178.148 166.372C177.753 167.302 177.193 167.17 175.677 169.253C174.297 171.147 174.087 172.18 173.617 172.135Z" stroke="#FF6011" stroke-width="2" stroke-miterlimit="10"/>
<path d="M169.087 179.956C169.762 178.874 170.747 177.301 171.97 175.428C176.303 168.78 178.519 165.408 181.032 163.078C182.436 161.773 185.579 158.921 190.505 157.315C194.29 156.08 200.65 155.088 202.45 157.727C203.035 158.579 202.953 159.542 203.686 159.785C204.703 160.123 205.778 158.558 207.805 156.904C209.988 155.121 212.002 154.273 213.571 153.61C214.679 153.141 217.67 151.918 221.397 151.964C222.237 151.976 231.052 152.087 232.518 156.904C233.219 159.205 232.057 161.963 230.459 163.49C229.203 164.692 228.156 164.667 226.34 165.548C223.432 166.96 221.817 169.105 220.162 171.312C215.379 177.676 217.484 182.06 213.571 188.19C212.241 190.273 209.86 193.121 205.333 195.599" stroke="#FF6011" stroke-width="2" stroke-miterlimit="10"/>
<path d="M187.622 185.308C188.965 183.53 190.32 181.611 191.671 179.541C194.303 175.506 195.403 173.086 197.071 170.225C198.611 167.578 201.037 163.84 204.72 159.579" stroke="#FF6011" stroke-width="2" stroke-miterlimit="10"/>
<path d="M137.371 126.029C139.331 127.927 140.435 129.713 141.078 130.969C142.631 134.003 142.688 136.16 144.785 137.556C145.872 138.28 146.276 137.951 147.256 138.791C148.735 140.063 148.801 141.664 149.316 142.907C150.333 145.361 153.064 146.328 157.554 147.847C161.244 149.094 164.045 149.518 169.498 150.317C176.587 151.354 180.175 151.857 182.267 151.14C183.89 150.585 185.785 149.572 188.857 149.494C191.119 149.436 191.057 149.955 192.976 149.905C196.634 149.807 197.474 147.901 202.45 146.612C205.704 145.768 205.465 146.55 206.981 145.789C210.614 143.961 210.618 140.141 213.983 139.202C215.635 138.741 215.688 139.647 217.278 139.202C220.701 138.239 220.409 134.048 224.692 130.969C226.608 129.59 227.077 130.138 228.811 128.911C232.152 126.552 233.301 122.493 233.754 119.443" stroke="white" stroke-width="2" stroke-miterlimit="10"/>
<path d="M158.789 187.366C158.612 186.732 157.397 182.159 159.613 180.368C160.28 179.829 161.154 179.705 162.908 179.545C166.022 179.261 166.681 179.829 169.499 179.545C171.422 179.351 171.492 179.051 172.794 179.133C174.359 179.232 174.804 179.705 176.913 180.368C180.154 181.385 180.418 180.677 182.267 181.603C184.269 182.603 183.89 183.394 185.974 184.485C188.4 185.753 189.228 184.847 190.917 186.131C192.466 187.305 192.075 188.297 193.8 189.425C194.669 189.993 194.904 189.832 197.096 190.66C197.627 190.861 198.109 191.059 198.549 191.248C198.549 191.248 199.678 191.734 200.803 192.306C203.163 193.512 205.811 195.357 206.157 195.599" stroke="white" stroke-width="2" stroke-miterlimit="10"/>
<path d="M222.221 116.973C222.345 117.771 222.489 118.747 222.633 119.854C222.67 120.155 222.88 121.777 223.045 123.559C223.337 126.696 223.424 129.598 223.457 131.381" stroke="white" stroke-width="2" stroke-miterlimit="10"/>
<path d="M211.924 121.501C212.134 122.584 212.426 124.144 212.747 126.029C213.2 128.676 213.427 129.998 213.571 131.381C213.757 133.139 213.884 135.658 213.571 138.791" stroke="white" stroke-width="2" stroke-miterlimit="10"/>
<path d="M201.626 127.676C201.775 129.17 201.911 130.681 202.038 132.204C202.446 137.14 202.714 141.948 202.862 146.612" stroke="white" stroke-width="2" stroke-miterlimit="10"/>
<path d="M188.034 131.792C188.244 133.855 188.388 136.053 188.446 138.379C188.54 142.277 188.359 145.863 188.034 149.082" stroke="white" stroke-width="2" stroke-miterlimit="10"/>
<path d="M168.675 132.204C168.658 133.554 168.654 134.929 168.675 136.321C168.741 141.232 169.037 145.904 169.498 150.317" stroke="white" stroke-width="2" stroke-miterlimit="10"/>
<path d="M155.082 127.676C154.901 128.808 154.716 130.36 154.67 132.204C154.65 133.097 154.642 134.962 155.082 138.379C155.371 140.627 155.861 143.574 156.73 147.024" stroke="white" stroke-width="2" stroke-miterlimit="10"/>
<path d="M146.021 121.501C145.773 123.222 145.609 125.157 145.609 127.264C145.609 131.875 146.387 135.798 147.256 138.791" stroke="white" stroke-width="2" stroke-miterlimit="10"/>
<path d="M166.203 187.778C166.352 186.703 166.488 185.604 166.615 184.485C166.776 183.085 166.912 181.71 167.027 180.368" stroke="white" stroke-width="2" stroke-miterlimit="10"/>
<path d="M173.617 190.248C173.692 189.219 173.823 188.115 174.029 186.955C174.515 184.217 175.29 181.867 176.089 179.956" stroke="white" stroke-width="2" stroke-miterlimit="10"/>
<path d="M183.915 197.246C183.079 194.636 183.239 192.701 183.503 191.483C183.659 190.758 184.018 189.766 184.739 187.778C185.237 186.399 185.669 185.267 185.974 184.485" stroke="white" stroke-width="2" stroke-miterlimit="10"/>
<path d="M190.505 199.304C190.674 198.185 190.933 196.937 191.329 195.599C192.025 193.265 192.944 191.335 193.8 189.836" stroke="white" stroke-width="2" stroke-miterlimit="10"/>
<path d="M198.743 198.893C199.567 197.11 200.391 195.324 201.214 193.541" stroke="white" stroke-width="2" stroke-miterlimit="10"/>
<path d="M138.195 126.852C137.132 126.774 135.468 126.515 133.664 125.617C132.539 125.058 129.397 123.23 127.897 119.443C127.642 118.796 125.9 114.396 127.897 112.033C129.409 110.246 131.979 110.905 136.959 110.798C136.959 110.798 142.8 110.674 150.551 108.74C158.089 106.858 159.955 101.445 164.144 102.565C165.948 103.046 165.787 103.968 168.675 105.446C169.177 105.706 173.675 107.949 178.148 107.505C185.249 106.801 186.201 99.9341 191.741 100.095C195.398 100.202 195.398 103.207 201.214 105.035C205.564 106.401 209.382 105.924 213.159 105.446C220.388 104.536 221.253 102.556 225.928 102.565C232.634 102.573 237.688 106.652 238.697 107.505C245.773 113.486 246.016 123.32 246.111 132.616C246.276 148.93 241.691 161.205 238.285 170.077C231.085 188.823 222.559 198.983 219.338 202.598C212.224 210.58 206.758 213.832 201.214 215.359C198.644 216.067 192.836 217.668 186.798 215.359C181.641 213.387 180.529 210.168 175.677 206.303C172.093 203.446 166.455 200.226 157.554 198.893" stroke="#FF6011" stroke-width="2" stroke-miterlimit="10"/>
<path d="M137.371 126.852C137.494 123.703 138.059 119.924 140.254 119.031C143.248 117.817 147.087 122.555 153.023 126.852C159.559 131.587 166.776 131.858 176.089 132.204C183.326 132.476 194.591 132.896 204.921 126.441C209.839 123.37 214.086 119.027 223.045 115.326C225.566 114.285 228.597 113.239 232.106 114.091C237.024 115.285 240.212 119.476 239.932 119.854C239.644 120.241 235.686 116.701 234.166 117.796C232.662 118.883 234.99 123.489 236.225 129.322C237.729 136.415 236.93 142.055 236.225 147.024C234.829 156.854 231.093 163.667 227.576 170.077C225.45 173.946 220.779 181.805 212.747 189.836C207.487 195.097 204.398 198.102 199.155 199.304C192.256 200.885 185.933 198.353 184.327 197.658C179.722 195.665 179.619 193.903 173.617 191.071C168.712 188.758 164.696 188.008 163.32 187.778C158.53 186.979 153.389 186.127 148.904 189.013C147.862 189.684 144.715 191.709 143.961 195.599C143.356 198.728 144.492 202.067 146.844 204.244C149.517 206.722 153.142 206.072 157.554 205.891C162.101 205.706 168.658 205.862 176.913 207.537" stroke="#FF6011" stroke-width="2" stroke-miterlimit="10"/>
<path d="M127.462 86.8379L133.262 50.0379H143.462C150.662 50.0379 154.812 53.2879 154.812 58.8379C154.812 63.6879 152.662 66.8379 148.912 68.4879C151.512 69.6379 153.212 72.1879 153.212 75.4379C153.212 82.8379 148.712 86.8379 139.612 86.8379H127.462ZM135.012 81.3879H140.012C144.362 81.3879 146.362 79.4379 146.362 75.3379C146.362 72.4379 144.862 70.8879 141.212 70.8879H136.662L135.012 81.3879ZM137.462 65.8879H141.712C146.012 65.8879 147.962 63.7879 147.962 59.7379C147.962 56.8379 146.512 55.4879 142.612 55.4879H139.112L137.462 65.8879ZM161.093 87.0779C158.723 87.0779 157.613 85.9079 157.613 83.7179C157.613 83.2679 157.643 82.7579 157.733 82.0979L160.493 64.7579H164.393L161.693 81.7079C161.633 82.1279 161.603 82.4279 161.603 82.6679C161.603 83.4179 161.933 83.6879 162.683 83.6879C163.013 83.6879 163.553 83.5979 163.943 83.4479L163.433 86.5379C162.743 86.9279 161.813 87.0779 161.093 87.0779ZM171.618 87.1679C168.408 87.1679 166.458 84.8579 166.458 80.8979C166.458 80.1779 166.548 79.1879 166.698 78.2879C167.628 72.5879 170.148 69.9479 174.138 69.9479C175.848 69.9479 177.378 70.4279 178.398 71.3879L178.638 70.2779H181.638L179.028 86.8379H175.698L175.818 85.3679C174.828 86.4779 173.508 87.1679 171.618 87.1679ZM172.878 83.8079C173.838 83.8079 175.038 83.3279 175.758 82.6379L177.138 74.0879C176.598 73.6679 175.698 73.3079 174.618 73.3079C172.398 73.3079 171.228 74.9279 170.628 78.5579C170.448 79.6679 170.418 80.4779 170.418 80.8379C170.418 82.8479 171.108 83.8079 172.878 83.8079Z" fill="#FF6011"/>
<path d="M61.5334 94.1892L64.5494 75.0532H69.8534C73.5974 75.0532 75.7554 76.7432 75.7554 79.6292C75.7554 82.1512 74.6374 83.7892 72.6874 84.6472C74.0394 85.2452 74.9234 86.5712 74.9234 88.2612C74.9234 92.1092 72.5834 94.1892 67.8514 94.1892H61.5334ZM65.4594 91.3552H68.0594C70.3214 91.3552 71.3614 90.3412 71.3614 88.2092C71.3614 86.7012 70.5814 85.8952 68.6834 85.8952H66.3174L65.4594 91.3552ZM66.7334 83.2952H68.9434C71.1794 83.2952 72.1934 82.2032 72.1934 80.0972C72.1934 78.5892 71.4394 77.8872 69.4114 77.8872H67.5914L66.7334 83.2952ZM80.6755 94.3972C78.6215 94.3972 77.6595 93.3832 77.6595 91.4852C77.6595 91.0952 77.6855 90.6532 77.7635 90.0812L80.1555 75.0532H83.5355L81.1955 89.7432C81.1435 90.1072 81.1175 90.3672 81.1175 90.5752C81.1175 91.2252 81.4035 91.4592 82.0535 91.4592C82.3395 91.4592 82.8075 91.3812 83.1455 91.2512L82.7035 93.9292C82.1055 94.2672 81.2995 94.3972 80.6755 94.3972ZM88.531 94.4092C86.391 94.4092 85.091 92.8692 85.091 90.2292C85.091 89.7492 85.151 89.0892 85.251 88.4892C85.871 84.6892 87.551 82.9292 90.211 82.9292C91.351 82.9292 92.371 83.2492 93.051 83.8892L93.211 83.1492H95.211L93.471 94.1892H91.251L91.331 93.2092C90.671 93.9492 89.791 94.4092 88.531 94.4092ZM89.371 92.1692C90.011 92.1692 90.811 91.8492 91.291 91.3892L92.211 85.6892C91.851 85.4092 91.251 85.1692 90.531 85.1692C89.051 85.1692 88.271 86.2492 87.871 88.6692C87.751 89.4092 87.731 89.9492 87.731 90.1892C87.731 91.5292 88.191 92.1692 89.371 92.1692Z" fill="#FF6011"/>
<path d="M84.3655 145.757L87.8455 123.677H93.9655C98.2855 123.677 100.775 125.627 100.775 128.957C100.775 131.867 99.4855 133.757 97.2355 134.747C98.7955 135.437 99.8155 136.967 99.8155 138.917C99.8155 143.357 97.1155 145.757 91.6555 145.757H84.3655ZM88.8955 142.487H91.8955C94.5055 142.487 95.7055 141.317 95.7055 138.857C95.7055 137.117 94.8055 136.187 92.6155 136.187H89.8855L88.8955 142.487ZM90.3655 133.187H92.9155C95.4955 133.187 96.6655 131.927 96.6655 129.497C96.6655 127.757 95.7955 126.947 93.4555 126.947H91.3555L90.3655 133.187ZM104.862 145.917C103.282 145.917 102.542 145.137 102.542 143.677C102.542 143.377 102.562 143.037 102.622 142.597L104.462 131.037H107.062L105.262 142.337C105.222 142.617 105.202 142.817 105.202 142.977C105.202 143.477 105.422 143.657 105.922 143.657C106.142 143.657 106.502 143.597 106.762 143.497L106.422 145.557C105.962 145.817 105.342 145.917 104.862 145.917ZM111.879 145.977C109.739 145.977 108.439 144.437 108.439 141.797C108.439 141.317 108.499 140.657 108.599 140.057C109.219 136.257 110.899 134.497 113.559 134.497C114.699 134.497 115.719 134.817 116.399 135.457L116.559 134.717H118.559L116.819 145.757H114.599L114.679 144.777C114.019 145.517 113.139 145.977 111.879 145.977ZM112.719 143.737C113.359 143.737 114.159 143.417 114.639 142.957L115.559 137.257C115.199 136.977 114.599 136.737 113.879 136.737C112.399 136.737 111.619 137.817 111.219 140.237C111.099 140.977 111.079 141.517 111.079 141.757C111.079 143.097 111.539 143.737 112.719 143.737Z" fill="#FF6011"/>
</g>
<defs>
<clipPath id="clip0_181_1271">
<rect width="333" height="400" fill="white"/>
</clipPath>
</defs>
</svg>
