<svg width="26" height="25" viewBox="0 0 26 25" fill="none" xmlns="http://www.w3.org/2000/svg">
<path d="M9.3999 10.2855C9.3999 9.07312 9.77919 7.91036 10.4543 7.05305C11.1294 6.19574 12.0451 5.71411 12.9999 5.71411C13.9547 5.71411 14.8704 6.19574 15.5455 7.05305C16.2206 7.91036 16.5999 9.07312 16.5999 10.2855V14.857C16.5999 16.0694 16.2206 17.2321 15.5455 18.0895C14.8704 18.9468 13.9547 19.4284 12.9999 19.4284C12.0451 19.4284 11.1294 18.9468 10.4543 18.0895C9.77919 17.2321 9.3999 16.0694 9.3999 14.857V10.2855Z" stroke="#52BF77" stroke-width="1.5"/>
<path d="M14.1999 10.2856H16.5999M14.1999 14.8571H16.5999M9.3999 10.2856H10.5999M9.3999 14.8571H10.5999" stroke="#52BF77" stroke-width="1.5" stroke-linecap="round"/>
<path d="M13.5002 0.521092C14.8665 0.637043 16.1976 1.22946 17.3442 2.25865C18.5398 3.33185 19.4776 4.83008 20.0351 6.58026L19.2513 6.93194C18.2914 4.13768 16.1369 2.04467 13.5002 1.80805V0.521092ZM12.5002 0.521318V1.80785C9.02667 2.11701 6.40736 5.62387 6.21188 9.78571H5.4101C5.50741 7.34098 6.31526 5.03644 7.66541 3.32196C8.98298 1.64886 10.7058 0.674453 12.5002 0.521318ZM5.40016 10.7857H6.20016V16.1156H5.40016V10.7857ZM5.3501 17.1156H6.17242C6.08761 17.8755 5.81188 18.574 5.39492 19.1034L5.77949 19.4063L5.39492 19.1034C5.02005 19.5795 4.56204 19.8824 4.08496 20.0067V18.7065C4.75038 18.4869 5.20476 17.8389 5.3501 17.1156ZM19.6631 7.84325L20.0908 7.65133C20.068 7.69281 20.0427 7.72875 20.0163 7.75892C19.9713 7.81027 19.9257 7.84204 19.8857 7.86001C19.8464 7.87763 19.8099 7.88331 19.7763 7.88104C19.7428 7.87879 19.7046 7.86813 19.6631 7.84325ZM20.6054 19.1034C20.1884 18.574 19.9127 17.8755 19.8279 17.1156H20.6502C20.7956 17.8396 21.2506 18.4869 21.9154 18.7064V20.0067C21.4383 19.8824 20.9803 19.5795 20.6054 19.1034Z" fill="black" stroke="#52BF77"/>
<path d="M1 13.3333C1 12.525 1.25286 11.7498 1.70294 11.1783C2.15303 10.6067 2.76348 10.2856 3.4 10.2856C4.03652 10.2856 4.64697 10.6067 5.09706 11.1783C5.54714 11.7498 5.8 12.525 5.8 13.3333V16.3809C5.8 17.1892 5.54714 17.9643 5.09706 18.5359C4.64697 19.1074 4.03652 19.4285 3.4 19.4285C2.76348 19.4285 2.15303 19.1074 1.70294 18.5359C1.25286 17.9643 1 17.1892 1 16.3809V13.3333ZM20.2 13.3333C20.2 12.525 20.4529 11.7498 20.9029 11.1783C21.353 10.6067 21.9635 10.2856 22.6 10.2856C23.2365 10.2856 23.847 10.6067 24.2971 11.1783C24.7471 11.7498 25 12.525 25 13.3333V16.3809C25 17.1892 24.7471 17.9643 24.2971 18.5359C23.847 19.1074 23.2365 19.4285 22.6 19.4285C21.9635 19.4285 21.353 19.1074 20.9029 18.5359C20.4529 17.9643 20.2 17.1892 20.2 16.3809V13.3333Z" stroke="#52BF77" stroke-width="1.5"/>
<path d="M13 19.4285V23.9999" stroke="#52BF77" stroke-width="1.5" stroke-linecap="round"/>
</svg>
