<svg width="24" height="24" viewBox="0 0 24 24" fill="none" xmlns="http://www.w3.org/2000/svg">
<path fill-rule="evenodd" clip-rule="evenodd" d="M6 6V4.8C6 3.52696 6.63214 2.30606 7.75736 1.40589C8.88258 0.505713 10.4087 0 12 0C13.5913 0 15.1174 0.505713 16.2426 1.40589C17.3679 2.30606 18 3.52696 18 4.8V6H22.5C23.328 6 24 6.5388 24 7.2084V21.6096C24 22.9296 22.6575 24 21.009 24H2.991C2.19826 24 1.43794 23.7482 0.877104 23.3C0.316269 22.8518 0.000795128 22.2438 0 21.6096V7.2096C0 6.54 0.6675 6 1.5 6H6ZM7.8 6H16.2V4.8C16.2 3.90887 15.7575 3.05424 14.9698 2.42412C14.1822 1.794 13.1139 1.44 12 1.44C10.8861 1.44 9.8178 1.794 9.03015 2.42412C8.2425 3.05424 7.8 3.90887 7.8 4.8V6ZM6 7.44H1.8V21.6096C1.8 22.1328 2.334 22.56 2.991 22.56H21.009C21.3244 22.56 21.6268 22.4599 21.8501 22.2818C22.0734 22.1036 22.1992 21.8619 22.2 21.6096V7.44H18V10.8H16.2V7.44H7.8V10.8H6V7.44Z" fill="#52BF77"/>
</svg>
