<svg width="495" height="403" viewBox="0 0 495 403" fill="none" xmlns="http://www.w3.org/2000/svg">
<g clip-path="url(#clip0_222_1760)">
<path d="M287.782 188.139C291.896 185.396 296.881 184.676 306.852 183.23C312.164 182.461 316.822 182.341 325.921 182.14C342.223 181.774 350.373 181.589 350.983 181.594C355.179 181.627 363.193 181.747 394.57 183.776C415.982 185.161 419.557 185.575 424.536 186.503C435.493 188.537 444.815 191.471 453.958 196.319C460.534 199.804 463.824 201.549 465.399 203.954C473.392 216.17 458.529 245.794 437.612 261.762C415.487 278.652 390.784 277.065 347.714 274.306C319.95 272.528 280.64 269.403 273.072 248.674C271.279 243.766 272.238 237.041 274.162 223.587C276.515 207.117 278.324 194.438 287.782 188.139Z" fill="#998675" stroke="#333333" stroke-miterlimit="10"/>
<path d="M279.61 198.501C277.741 197.437 274.369 197.792 267.624 198.501C258.269 199.482 251.344 201.44 250.189 201.773C239.875 204.739 219.019 212.38 192.442 223.893C189.314 225.365 184.247 228.61 184.264 230.677C184.286 233.818 196.07 232.34 204.423 238.857C215.597 247.578 209.125 261.632 218.588 267.761C227.213 273.351 240.889 267.052 252.368 261.762C260.808 257.874 268.37 254.389 274.707 246.492C288.011 229.913 288.262 203.425 279.61 198.501Z" fill="#9C8872" stroke="#333333" stroke-miterlimit="10"/>
<path d="M185.898 228.495C182.084 231.735 181.185 236.114 180.994 237.221C180.008 242.904 182.749 247.441 184.808 250.855C187.647 255.562 191.461 258.785 192.436 259.581C196.043 262.542 196.713 262.755 198.429 264.489C201.317 267.401 203.246 271.742 203.878 281.941C204.27 288.311 203.916 293.077 202.788 303.755C200.718 323.355 199.524 329.894 203.333 332.659C204.204 333.292 204.559 333.161 210.96 333.75C224.118 334.961 226.183 335.844 227.85 334.295C230.264 332.043 228.319 327.936 227.306 320.116C225.262 304.35 230.885 303.401 228.395 292.848C225.486 280.517 217.232 279.388 216.954 267.761C216.828 262.428 218.452 262.33 218.588 254.673C218.675 249.879 218.806 242.495 214.229 235.585C212.895 233.567 209.424 228.495 202.788 226.314C200.309 225.501 191.995 223.32 185.898 228.495Z" fill="#998675" stroke="#333333" stroke-miterlimit="10"/>
<path d="M221.312 291.757C220.898 293.666 221.558 294.217 221.312 301.574C220.68 320.487 215.951 328.242 220.223 333.205C222.075 335.359 224.483 335.659 230.575 336.477C240.937 337.868 251.186 340.365 261.63 340.84C272.391 341.331 269.329 342.214 303.583 347.384C352.111 354.708 348.788 351.502 369.508 356.11C382.246 358.94 395.862 357.839 408.191 362.109C410.905 363.047 415.421 364.759 417.998 362.654C421.082 360.14 418.494 354.539 416.909 340.294C415.759 329.971 416.723 329.404 415.274 316.844C414.441 309.618 413.378 303.39 413.095 302.119C406.546 272.86 227.6 262.657 221.312 291.757Z" fill="#998675" stroke="#333333" stroke-miterlimit="10"/>
<path d="M261.085 250.31C275.818 245.532 275.643 245.565 276.341 245.402C289.041 242.424 299.311 244.725 308.486 246.492C343.399 253.206 363.542 252.311 363.515 255.218C363.487 258.228 341.857 262.286 333.004 263.944C326.024 265.253 318.805 266.371 312.845 272.124C311.532 273.389 308.835 276.051 307.397 280.305C304.896 287.689 308.704 292.45 306.307 295.575C303.795 298.847 296.99 297.036 289.417 295.575C280.531 293.857 258.699 289.679 238.747 291.757C229.283 292.744 225.551 294.588 221.312 291.757C214.622 287.296 212.252 274.933 216.954 267.761C218.463 265.454 220.201 264.456 233.844 259.581C247.04 254.864 257.702 251.406 261.085 250.31Z" fill="#9C8872" stroke="#333333" stroke-miterlimit="10"/>
<path d="M354.797 254.127C357.892 253.326 362.91 253.037 369.508 253.037C381.794 254.176 389.356 254.885 398.929 255.763C409.292 256.718 419.012 257.596 429.44 263.398C435.117 266.556 435.787 268.269 435.978 268.852C438.751 277.223 420.924 287.083 414.184 300.483C413.689 301.47 412.321 304.322 409.281 306.482C406.077 308.756 402.683 309.083 401.108 309.209C388.403 310.212 371.142 308.118 371.142 308.118C367.546 307.813 362.409 307.376 356.214 306.831C348.069 306.117 343.928 305.751 340.632 305.391C333.293 304.595 328.76 303.881 321.017 302.664C306.247 300.341 303.997 299.474 302.493 297.211C299.676 292.979 301.567 287.04 302.493 284.122C303 282.524 304.847 277.283 311.21 271.579C316.049 267.243 323.039 264.631 336.818 259.581C336.818 259.581 344.32 256.832 354.797 254.127Z" fill="#9C8872" stroke="#333333" stroke-miterlimit="10"/>
<path d="M473.027 221.406C462.822 219.666 454.143 225.354 448.509 229.041C444.112 231.92 439.764 236.414 431.074 245.402C423.948 252.775 420.379 256.456 418.543 259.581C412.681 269.556 411.82 279.05 411.46 283.577C411.199 286.86 411.302 288.856 411.46 293.393C412.196 314.711 412.561 325.373 412.005 332.114C411.22 341.56 411.482 346.773 412.005 357.201C412.092 358.924 412.228 361.094 413.64 363.2C416.892 368.037 424.111 368.342 431.619 368.653C437.547 368.899 440.554 368.986 442.516 367.017C445.24 364.285 444.363 359.687 443.606 353.928C442.565 345.977 442.914 337.895 441.971 329.933C439.274 307.147 438.157 295.618 443.061 289.576C444.243 288.12 448.209 285.693 456.137 280.85C463.955 276.073 465.884 275.587 473.027 271.034C482.376 265.067 485.694 261.67 486.648 260.672C490.216 256.931 493.142 253.784 494.275 248.674C495.561 242.871 493.747 238.094 493.186 236.676C490.549 230.011 485.307 226.761 482.834 225.223C481.499 224.394 477.903 222.24 473.027 221.406Z" fill="#9C8872" stroke="#333333" stroke-miterlimit="10"/>
<path d="M439.247 289.576C441.535 285.207 445.311 281.39 452.868 273.76C469.137 257.329 490.097 243.018 493.731 246.492C496.286 248.936 487.263 257.258 485.013 276.487C484.185 283.577 484.398 291.103 484.468 293.393C484.872 306.351 486.996 310.021 485.013 316.298C483.03 322.565 479.211 325.504 473.572 331.023C452.802 351.343 446.531 368.337 441.971 366.472C439.808 365.588 439.863 361.203 439.792 356.11C439.198 314.008 430.856 305.593 439.247 289.576Z" fill="#998675" stroke="#333333" stroke-miterlimit="10"/>
<path d="M239.603 101.072C239.39 101.377 239.494 101.737 239.603 102.304C239.663 102.61 239.744 103.744 239.913 106.007C240.028 107.567 239.821 107.207 239.913 109.094C239.951 109.879 240.098 112.192 239.913 113.108C239.766 113.844 239.45 114.499 239.45 114.499C239.183 114.788 238.823 115.251 238.682 115.889C238.366 117.247 239.276 118.207 238.834 118.823C238.557 119.211 238.05 119.167 236.982 119.134C234.47 119.047 232.427 120.972 231.43 121.91C231.403 121.937 231.152 122.194 230.885 122.515C228.684 125.188 228.33 129.098 228.194 131.323C228.03 133.968 228.194 133.75 228.194 140.272C228.194 144.613 228.117 146.2 228.504 148.916C228.875 151.523 229.06 152.827 229.736 154.163C231.256 157.157 234.318 159.616 237.598 160.183C238.349 160.314 239.385 160.32 241.45 160.336C243.732 160.353 244.871 160.363 245.923 160.183C247.051 159.987 249.786 159.338 252.09 157.097C254.291 154.959 254.967 152.472 255.327 151.076C255.599 150.023 255.626 149.451 255.637 142.432C255.637 139.989 255.637 138.849 255.637 137.491C255.626 130.941 255.599 130.309 255.485 129.311C255.081 125.798 254.88 124.042 253.48 122.368C253.06 121.866 251.295 119.761 248.543 119.281C247.04 119.02 245.841 119.352 245.46 118.665C245.04 117.902 246.211 116.925 245.77 115.578C245.574 114.984 245.242 114.864 244.844 114.346C244.364 113.724 244.25 113.124 244.228 109.405C244.212 106.373 244.201 104.835 244.381 104.006C244.386 103.979 244.512 103.4 244.533 102.615C244.555 101.868 244.566 101.497 244.381 101.224C244.223 101.001 243.95 100.832 242.071 100.761C240.049 100.685 239.755 100.859 239.603 101.072Z" stroke="#333333" stroke-miterlimit="10"/>
<path d="M238.371 121.136C240.747 120.694 242.577 120.765 243.923 120.825C245.52 120.896 246.577 120.956 247.933 121.441C249.508 122.008 250.478 122.794 250.706 122.984C251.18 123.377 252.216 124.255 252.864 125.76C253.033 126.153 253.812 127.958 253.174 128.536C252.913 128.771 252.635 128.602 251.017 128.536C250.341 128.509 249.927 128.52 249.164 128.536C247.361 128.58 247.138 128.727 247.007 128.847C246.484 129.311 246.326 130.281 246.696 130.701C246.991 131.028 247.47 130.848 248.854 130.701C251.491 130.418 252.406 130.772 252.864 131.012C253.632 131.416 253.763 131.841 253.79 131.939C253.943 132.512 253.583 133.144 253.174 133.483C252.771 133.815 252.297 133.892 250.706 133.793C249.361 133.712 248.647 133.592 247.312 133.483C245.416 133.335 244.893 133.423 244.539 133.793C244.228 134.121 244.032 134.677 244.228 135.026C244.457 135.424 245.111 135.397 246.696 135.337C249.29 135.233 250.063 135.217 251.011 135.337C252.243 135.495 253.033 135.604 253.48 136.264C253.899 136.886 253.954 137.884 253.48 138.424C253.109 138.843 252.542 138.849 250.085 138.734C247.514 138.614 246.773 138.544 246.386 139.045C246.059 139.465 246.07 140.185 246.386 140.589C246.773 141.079 247.514 140.992 249.47 140.899C252.728 140.741 253.213 140.861 253.48 141.21C253.899 141.761 253.687 142.803 253.169 143.37C253.022 143.534 252.641 143.888 249.775 143.986C248.26 144.041 247.503 144.068 246.691 143.986C245.269 143.85 244.599 143.583 244.223 143.986C243.896 144.335 243.874 145.093 244.223 145.53C244.849 146.315 246.299 145.579 249.464 145.53C251.262 145.502 252.902 145.491 253.474 146.457C253.741 146.904 253.79 147.586 253.474 148C253.131 148.458 252.461 148.436 250.08 148.311C247.579 148.175 246.86 148.115 246.38 148.622C245.988 149.031 245.803 149.756 246.07 150.165C246.413 150.694 247.323 150.411 249.464 150.476C252.058 150.552 252.412 150.874 252.548 151.092C252.679 151.305 252.804 151.736 252.237 152.947C250.973 155.657 248.364 157.768 247.612 157.266C247.41 157.135 247.514 156.922 246.996 155.722C246.691 155.008 246.56 154.861 246.38 154.795C245.972 154.648 245.367 154.964 245.149 155.412C245.051 155.608 245.084 156.061 245.149 156.955C245.198 157.593 245.263 157.729 245.149 157.882C244.997 158.084 244.637 158.122 243.918 158.193C243.564 158.226 243.384 158.242 243.302 158.193C243.002 158.013 243.095 157.528 242.991 156.339C242.91 155.384 242.812 155.215 242.681 155.106C242.359 154.828 241.76 154.828 241.45 155.106C241.319 155.221 241.243 155.379 241.139 156.339C241.025 157.424 241.063 157.729 240.828 157.882C240.665 157.991 240.578 157.882 239.902 157.882C239.21 157.882 239.118 157.991 238.976 157.882C238.72 157.68 238.807 157.113 238.976 156.028C239.058 155.504 239.123 155.292 238.976 155.101C238.813 154.888 238.48 154.844 238.05 154.79C237.728 154.752 237.57 154.73 237.434 154.79C237.271 154.861 237.069 155.035 236.819 156.022C236.579 156.96 236.682 157.135 236.508 157.255C236.056 157.582 234.884 156.677 234.04 156.022C232.907 155.144 232.269 154.381 231.882 153.863C231.218 152.963 230.765 152.341 230.956 151.703C231.12 151.158 231.681 150.885 231.882 150.776C232.694 150.345 233.315 150.683 235.277 150.776C236.971 150.858 237.276 150.64 237.434 150.465C237.87 149.985 237.875 149.025 237.434 148.611C237.075 148.278 236.639 148.507 234.966 148.611C234.732 148.627 233.991 148.622 232.498 148.611C230.885 148.6 230.564 148.578 230.34 148.3C230.008 147.891 230.106 147.198 230.34 146.757C230.607 146.255 231.092 146.004 231.572 145.83C232.977 145.328 234.132 145.595 236.813 145.83C238.894 146.015 239.575 145.977 239.897 145.519C240.142 145.17 240.147 144.608 239.897 144.286C239.586 143.883 238.965 143.97 238.044 143.975C236.71 143.986 235.369 143.921 234.034 143.975C232.324 144.046 231.752 144.112 231.261 143.664C230.798 143.245 230.673 142.617 230.646 142.432C230.618 142.268 230.504 141.418 230.956 140.889C231.207 140.594 231.681 140.332 234.35 140.578C236.535 140.78 237.32 141.063 237.745 140.578C238.088 140.185 238.044 139.46 237.745 139.034C237.668 138.92 237.385 138.571 235.892 138.418C234.999 138.325 234.645 138.407 233.424 138.418C232.002 138.429 231.283 138.429 230.956 138.107C230.362 137.524 230.362 136.248 230.956 135.637C231.288 135.293 231.686 135.288 233.424 135.326C234.966 135.364 236.508 135.277 238.05 135.326C239.036 135.359 239.684 135.397 239.902 135.015C240.088 134.693 239.924 134.126 239.592 133.783C238.802 132.948 237.347 133.673 233.735 133.783C232.253 133.826 231.446 133.733 230.962 133.166C230.624 132.768 230.4 132.092 230.651 131.623C230.82 131.312 231.163 131.159 231.882 131.007C233.25 130.718 234.677 130.707 236.197 130.696C237.107 130.696 237.521 130.69 237.739 130.385C238.023 129.992 237.854 129.245 237.429 128.842C237.145 128.569 236.808 128.514 234.961 128.531C234.367 128.536 233.462 128.553 232.493 128.531C231.038 128.498 230.798 128.411 230.64 128.22C230.215 127.696 230.673 126.676 230.951 126.06C231.904 123.939 233.539 122.794 233.724 122.663C235.097 121.725 236.323 121.496 238.349 121.119L238.371 121.136Z" fill="#333333" stroke="#333333" stroke-miterlimit="10"/>
<path d="M242.016 100.608C242.289 94.6093 245.013 88.6103 247.737 83.1567C251.006 76.6123 244.468 71.1587 240.654 66.2505C239.02 63.5237 238.475 60.7969 238.475 58.0701C240.109 38.9824 245.013 19.3494 239.799 0.0709229" stroke="#333333" stroke-miterlimit="10"/>
<path d="M16.4541 59.4334C13.2777 60.426 14.5091 65.6942 10.4609 71.9767C6.03141 78.8592 0.730149 78.4829 0.29428 82.7367C-0.0435181 86.0634 3.47612 88.7629 9.42029 95.2255C15.2119 101.524 17.5002 102.61 20.8292 108.161C21.216 108.799 22.9649 111.755 24.7411 116.189C28.5004 125.569 28.4351 131.754 29.6337 131.803C31.2737 131.868 30.8215 120.219 35.5016 107.714C40.3452 94.7837 48.2617 87.3832 50.4955 85.4144C57.3495 79.3718 64.7212 77.1849 64.1872 75.6034C63.7513 74.3218 58.9622 75.7452 50.7734 74.1582C47.9402 73.6073 46.0224 72.9584 43.1456 71.9767C38.8251 70.5042 31.8948 68.1483 24.0764 63.2509C19.369 60.306 18.2303 58.8771 16.4487 59.4334H16.4541Z" fill="#808080" stroke="#333333" stroke-miterlimit="10"/>
<path d="M64.1926 75.6034C66.5735 76.9395 66.3773 79.0501 71.3626 83.6311C76.4187 88.2721 79.6005 88.8393 79.8403 91.6588C80.0582 94.222 77.65 96.3707 75.2745 98.7976C70.4691 103.706 66.5844 110.103 62.2366 115.747C50.1903 131.372 50.5226 147.084 44.6329 146.969C42.9385 146.937 40.4595 144.27 35.5069 138.942C31.6876 134.835 29.7807 132.779 28.9852 130.914C24.4795 120.29 35.6213 100.101 43.3308 89.8755C46.6161 85.5181 57.0988 71.6223 64.1926 75.6034Z" fill="#666666" stroke="#333333" stroke-miterlimit="10"/>
<path d="M43.2982 94.7401C35.9156 104.846 32.7175 116.844 36.1499 121.55C39.5878 126.251 48.3597 121.877 55.7422 111.772C63.1248 101.666 66.323 89.6682 62.8905 84.9618C59.4526 80.2608 50.6807 84.6346 43.2982 94.7401Z" fill="#FFFCBF"/>
<path opacity="0.4" d="M38.1114 122.886C38.8797 127.478 41.4404 130.265 42.0234 130.914C45.701 134.999 48.9155 140.632 87.0105 235.291C113.686 301.563 127.018 334.699 127.432 336.095C134.33 359.284 136.236 370.976 145.689 380.7C160.629 396.074 177.077 388.695 209.588 385.161C246.838 381.115 236.721 389.557 301.518 387.839C341.858 386.77 329.354 383.929 379.756 381.595C405.391 380.406 415.808 380.809 416.92 375.35C419.088 364.694 383.314 343.703 349.109 320.934C328.013 306.885 266.638 265.7 208.928 211.207C163.004 167.846 112.781 133.57 66.1433 91.6642C66.0234 91.5552 64.7594 90.4208 62.8851 89.8809C51.8794 86.7178 35.7414 108.756 38.1114 122.886Z" fill="#FFFCBF"/>
<path opacity="0.8" d="M283.26 403C359.6 403 421.485 391.817 421.485 378.022C421.485 364.228 359.6 353.045 283.26 353.045C206.921 353.045 145.035 364.228 145.035 378.022C145.035 391.817 206.921 403 283.26 403Z" fill="#FFFCBF"/>
</g>
<defs>
<clipPath id="clip0_222_1760">
<rect width="495" height="403" fill="white"/>
</clipPath>
</defs>
</svg>
