<svg width="30" height="30" viewBox="0 0 30 30" fill="none" xmlns="http://www.w3.org/2000/svg">
<g clip-path="url(#clip0_178_554)">
<path d="M23.85 13.35C19.05 10.5 11.025 10.2 6.45 11.625C5.7 11.85 4.95 11.4 4.725 10.725C4.5 9.975 4.95 9.225 5.625 9C10.95 7.425 19.725 7.725 25.275 11.025C25.95 11.4 26.175 12.3 25.8 12.975C25.425 13.5 24.525 13.725 23.85 13.35ZM23.7 17.55C23.325 18.075 22.65 18.3 22.125 17.925C18.075 15.45 11.925 14.7 7.2 16.2C6.6 16.35 5.925 16.05 5.775 15.45C5.625 14.85 5.925 14.175 6.525 14.025C12 12.375 18.75 13.2 23.4 16.05C23.85 16.275 24.075 17.025 23.7 17.55ZM21.9 21.675C21.6 22.125 21.075 22.275 20.625 21.975C17.1 19.8 12.675 19.35 7.425 20.55C6.9 20.7 6.45 20.325 6.3 19.875C6.15 19.35 6.525 18.9 6.975 18.75C12.675 17.475 17.625 18 21.525 20.4C22.05 20.625 22.125 21.225 21.9 21.675ZM15 0C13.0302 0 11.0796 0.387987 9.25975 1.14181C7.43986 1.89563 5.78628 3.00052 4.3934 4.3934C1.58035 7.20644 0 11.0218 0 15C0 18.9782 1.58035 22.7936 4.3934 25.6066C5.78628 26.9995 7.43986 28.1044 9.25975 28.8582C11.0796 29.612 13.0302 30 15 30C18.9782 30 22.7936 28.4196 25.6066 25.6066C28.4196 22.7936 30 18.9782 30 15C30 13.0302 29.612 11.0796 28.8582 9.25975C28.1044 7.43986 26.9995 5.78628 25.6066 4.3934C24.2137 3.00052 22.5601 1.89563 20.7403 1.14181C18.9204 0.387987 16.9698 0 15 0Z" fill="#52BF77"/>
</g>
<defs>
<clipPath id="clip0_178_554">
<rect width="30" height="30" fill="white"/>
</clipPath>
</defs>
</svg>
